<?xml version="1.0" encoding="UTF-8"?>
<svg width="1024px" height="615px" viewBox="0 0 1024 615" version="1.1" xmlns="http://www.w3.org/2000/svg" xmlns:xlink="http://www.w3.org/1999/xlink" style="background: #FFFFFF;">
    <!-- Generator: Sketch 44.1 (41455) - http://www.bohemiancoding.com/sketch -->
    <title>Wireframe Low-Fi</title>
    <desc>Created with Sketch.</desc>
    <defs></defs>
    <g id="PROCESO" stroke="none" stroke-width="1" fill="none" fill-rule="evenodd">
        <g id="Wireframe-Low-Fi">
            <rect id="Rectangle" fill="#D8D8D8" x="664" y="0" width="360" height="615"></rect>
            <rect id="Rectangle-2" fill="#D8D8D8" opacity="0.300000012" x="0" y="0" width="664" height="265"></rect>
            <rect id="Rectangle-5" fill="#7C7C7C" x="47" y="70" width="310" height="36"></rect>
            <circle id="Oval" fill="#D8D8D8" cx="58" cy="140" r="11"></circle>
            <circle id="Oval" fill="#D8D8D8" cx="88" cy="140" r="11"></circle>
            <circle id="Oval" fill="#D8D8D8" cx="118" cy="140" r="11"></circle>
            <circle id="Oval" fill="#D8D8D8" cx="148" cy="140" r="11"></circle>
            <rect id="Rectangle-5-Copy" fill="#D8D8D8" x="47" y="245" width="52" height="6"></rect>
            <rect id="Rectangle-5-Copy" fill="#D8D8D8" x="137" y="245" width="52" height="6"></rect>
            <rect id="Rectangle-5-Copy" fill="#D8D8D8" x="577" y="245" width="52" height="6"></rect>
            <rect id="Rectangle-3" fill="#F2F2F2" x="664" y="383" width="360" height="232"></rect>
            <rect id="Rectangle-4" fill="#8E8E8E" x="532" y="17" width="100" height="26"></rect>
            <g id="Group-2" transform="translate(42.000000, 17.000000)">
                <rect id="Rectangle-5-Copy" fill="#D8D8D8" x="5" y="268" width="52" height="6"></rect>
                <rect id="Rectangle-5-Copy-2" fill="#D8D8D8" x="649" y="389" width="52" height="6"></rect>
                <g id="Group-3" transform="translate(649.000000, 407.000000)">
                    <rect id="Rectangle-5-Copy-3" fill="#D8D8D8" x="42" y="7" width="242" height="6"></rect>
                    <rect id="Rectangle-5-Copy-3" fill="#D8D8D8" x="42" y="22" width="152" height="6"></rect>
                    <circle id="Oval-2" fill="#B7B3B3" cx="15" cy="15" r="15"></circle>
                </g>
                <g id="Group-3" transform="translate(649.000000, 457.000000)">
                    <rect id="Rectangle-5-Copy-3" fill="#D8D8D8" x="42" y="7" width="242" height="6"></rect>
                    <rect id="Rectangle-5-Copy-3" fill="#D8D8D8" x="42" y="22" width="152" height="6"></rect>
                    <circle id="Oval-2" fill="#B7B3B3" cx="15" cy="15" r="15"></circle>
                </g>
                <g id="Group-3" transform="translate(649.000000, 507.000000)">
                    <rect id="Rectangle-5-Copy-3" fill="#D8D8D8" x="42" y="7" width="242" height="6"></rect>
                    <rect id="Rectangle-5-Copy-3" fill="#D8D8D8" x="42" y="22" width="152" height="6"></rect>
                    <circle id="Oval-2" fill="#B7B3B3" cx="15" cy="15" r="15"></circle>
                </g>
                <g id="Group-3" transform="translate(649.000000, 557.000000)">
                    <rect id="Rectangle-5-Copy-3" fill="#D8D8D8" x="42" y="7" width="242" height="6"></rect>
                    <rect id="Rectangle-5-Copy-3" fill="#D8D8D8" x="42" y="22" width="152" height="6"></rect>
                    <circle id="Oval-2" fill="#B7B3B3" cx="15" cy="15" r="15"></circle>
                </g>
                <rect id="Rectangle-8" fill="#D8D8D8" x="0" y="0" width="16" height="16"></rect>
                <g id="Group" transform="translate(5.000000, 289.000000)">
                    <rect id="Rectangle-6" fill="#9B9A9A" x="0" y="0" width="51" height="51"></rect>
                    <rect id="Rectangle-7" fill="#D8D8D8" x="60" y="12" width="167" height="14"></rect>
                    <rect id="Rectangle-7" fill="#D8D8D8" x="60" y="32" width="69" height="6"></rect>
                    <rect id="Rectangle-7" fill="#D8D8D8" x="145" y="32" width="69" height="6"></rect>
                </g>
                <g id="Group-Copy-2" transform="translate(5.000000, 363.000000)">
                    <rect id="Rectangle-6" fill="#9B9A9A" x="0" y="0" width="51" height="51"></rect>
                    <rect id="Rectangle-7" fill="#D8D8D8" x="60" y="12" width="167" height="14"></rect>
                    <rect id="Rectangle-7" fill="#D8D8D8" x="60" y="32" width="69" height="6"></rect>
                    <rect id="Rectangle-7" fill="#D8D8D8" x="145" y="32" width="69" height="6"></rect>
                </g>
                <g id="Group-Copy" transform="translate(308.000000, 289.000000)">
                    <rect id="Rectangle-6" fill="#9B9A9A" x="0" y="0" width="51" height="51"></rect>
                    <rect id="Rectangle-7" fill="#D8D8D8" x="60" y="12" width="167" height="14"></rect>
                    <rect id="Rectangle-7" fill="#D8D8D8" x="60" y="32" width="69" height="6"></rect>
                    <rect id="Rectangle-7" fill="#D8D8D8" x="145" y="32" width="69" height="6"></rect>
                </g>
            </g>
            <g id="Group-2" transform="translate(47.000000, 455.000000)">
                <rect id="Rectangle-5-Copy" fill="#D8D8D8" x="0" y="0" width="52" height="6"></rect>
                <g id="Group" transform="translate(0.000000, 21.000000)">
                    <rect id="Rectangle-6" fill="#9B9A9A" x="0" y="0" width="51" height="51"></rect>
                    <rect id="Rectangle-7" fill="#D8D8D8" x="60" y="12" width="167" height="14"></rect>
                    <rect id="Rectangle-7" fill="#D8D8D8" x="60" y="32" width="69" height="6"></rect>
                    <rect id="Rectangle-7" fill="#D8D8D8" x="145" y="32" width="69" height="6"></rect>
                </g>
                <g id="Group-Copy-2" transform="translate(0.000000, 95.000000)">
                    <rect id="Rectangle-6" fill="#9B9A9A" x="0" y="0" width="51" height="51"></rect>
                    <rect id="Rectangle-7" fill="#D8D8D8" x="60" y="12" width="167" height="14"></rect>
                    <rect id="Rectangle-7" fill="#D8D8D8" x="60" y="32" width="69" height="6"></rect>
                    <rect id="Rectangle-7" fill="#D8D8D8" x="145" y="32" width="69" height="6"></rect>
                </g>
                <g id="Group-Copy" transform="translate(303.000000, 21.000000)">
                    <rect id="Rectangle-6" fill="#9B9A9A" x="0" y="0" width="51" height="51"></rect>
                    <rect id="Rectangle-7" fill="#D8D8D8" x="60" y="12" width="167" height="14"></rect>
                    <rect id="Rectangle-7" fill="#D8D8D8" x="60" y="32" width="69" height="6"></rect>
                    <rect id="Rectangle-7" fill="#D8D8D8" x="145" y="32" width="69" height="6"></rect>
                </g>
            </g>
        </g>
    </g>
</svg>