<?xml version="1.0" encoding="UTF-8"?>
<svg width="273px" height="28px" viewBox="0 0 273 28" version="1.1" xmlns="http://www.w3.org/2000/svg" xmlns:xlink="http://www.w3.org/1999/xlink">
    <!-- Generator: Sketch 44.1 (41455) - http://www.bohemiancoding.com/sketch -->
    <title>SCOPECANVAS</title>
    <desc>Created with Sketch.</desc>
    <defs></defs>
    <g id="Print" stroke="none" stroke-width="1" fill="none" fill-rule="evenodd">
        <g id="sc-symbol-es-copy" transform="translate(-545.000000, -53.000000)" fill="#FFFFFF">
            <path d="M559.768,59.2665599 C559.263997,58.5705564 558.580004,58.0005621 557.716,57.5565599 C556.851996,57.1125577 555.880005,56.8905599 554.8,56.8905599 C554.223997,56.8905599 553.642003,56.9685591 553.054,57.1245599 C552.465997,57.2805607 551.932002,57.5325582 551.452,57.8805599 C550.971998,58.2285616 550.582002,58.6605573 550.282,59.1765599 C549.981999,59.6925625 549.832,60.3105563 549.832,61.0305599 C549.832,61.7265634 549.969999,62.3085576 550.246,62.7765599 C550.522001,63.2445622 550.893998,63.6405583 551.362,63.9645599 C551.830002,64.2885615 552.381997,64.5645588 553.018,64.7925599 C553.654003,65.020561 554.331996,65.2545587 555.052,65.4945599 C555.916004,65.7585612 556.791996,66.0585582 557.68,66.3945599 C558.568004,66.7305616 559.371996,67.1745571 560.092,67.7265599 C560.812004,68.2785627 561.399998,68.9685558 561.856,69.7965599 C562.312002,70.624564 562.54,71.6745535 562.54,72.9465599 C562.54,74.2665665 562.294002,75.412555 561.802,76.3845599 C561.309998,77.3565648 560.656004,78.1605567 559.84,78.7965599 C559.023996,79.4325631 558.082005,79.9065583 557.014,80.2185599 C555.945995,80.5305615 554.848006,80.6865599 553.72,80.6865599 C552.111992,80.6865599 550.558008,80.374563 549.058,79.7505599 C547.557992,79.1265568 546.316005,78.202566 545.332,76.9785599 L548.104,74.6385599 C548.704003,75.5265643 549.507995,76.2465571 550.516,76.7985599 C551.524005,77.3505627 552.615994,77.6265599 553.792,77.6265599 C554.392003,77.6265599 554.991997,77.5425607 555.592,77.3745599 C556.192003,77.2065591 556.737998,76.9425617 557.23,76.5825599 C557.722002,76.2225581 558.123998,75.7725626 558.436,75.2325599 C558.748002,74.6925572 558.904,74.0385637 558.904,73.2705599 C558.904,72.5025561 558.742002,71.8605625 558.418,71.3445599 C558.093998,70.8285573 557.656003,70.3905617 557.104,70.0305599 C556.551997,69.6705581 555.910004,69.3645612 555.178,69.1125599 C554.445996,68.8605586 553.672004,68.6025612 552.856,68.3385599 C552.039996,68.0985587 551.236004,67.8045616 550.444,67.4565599 C549.651996,67.1085582 548.944003,66.6645626 548.32,66.1245599 C547.695997,65.5845572 547.192002,64.9185639 546.808,64.1265599 C546.423998,63.3345559 546.232,62.3505658 546.232,61.1745599 C546.232,59.9025535 546.489997,58.8105645 547.006,57.8985599 C547.522003,56.9865553 548.193996,56.2305629 549.022,55.6305599 C549.850004,55.0305569 550.785995,54.5925613 551.83,54.3165599 C552.874005,54.0405585 553.923995,53.9025599 554.98,53.9025599 C556.468007,53.9025599 557.859994,54.1665573 559.156,54.6945599 C560.452006,55.2225625 561.495996,55.9305555 562.288,56.8185599 L559.768,59.2665599 Z M589.9945,76.0785599 C588.986495,77.4465667 587.678508,78.5565556 586.0705,79.4085599 C584.462492,80.2605642 582.530511,80.6865599 580.2745,80.6865599 C578.33049,80.6865599 576.536508,80.3565632 574.8925,79.6965599 C573.248492,79.0365566 571.832506,78.1125658 570.6445,76.9245599 C569.456494,75.736554 568.526503,74.3205681 567.8545,72.6765599 C567.182497,71.0325517 566.8465,69.2265697 566.8465,67.2585599 C566.8465,65.2665499 567.188497,63.4485681 567.8725,61.8045599 C568.556503,60.1605517 569.504494,58.7565657 570.7165,57.5925599 C571.928506,56.4285541 573.362492,55.5225631 575.0185,54.8745599 C576.674508,54.2265567 578.47449,53.9025599 580.4185,53.9025599 C581.282504,53.9025599 582.158496,53.9865591 583.0465,54.1545599 C583.934504,54.3225607 584.786496,54.5745582 585.6025,54.9105599 C586.418504,55.2465616 587.162497,55.6605574 587.8345,56.1525599 C588.506503,56.6445624 589.082498,57.2145567 589.5625,57.8625599 L586.7545,60.0225599 C586.130497,59.1585556 585.248506,58.4445627 584.1085,57.8805599 C582.968494,57.3165571 581.738507,57.0345599 580.4185,57.0345599 C578.930493,57.0345599 577.592506,57.3045572 576.4045,57.8445599 C575.216494,58.3845626 574.202504,59.1225552 573.3625,60.0585599 C572.522496,60.9945646 571.874502,62.0805537 571.4185,63.3165599 C570.962498,64.5525661 570.7345,65.8665529 570.7345,67.2585599 C570.7345,68.6985671 570.956498,70.0425537 571.4005,71.2905599 C571.844502,72.5385661 572.480496,73.6245553 573.3085,74.5485599 C574.136504,75.4725645 575.144494,76.1985573 576.3325,76.7265599 C577.520506,77.2545625 578.846493,77.5185599 580.3105,77.5185599 C581.750507,77.5185599 583.058494,77.2305628 584.2345,76.6545599 C585.410506,76.078557 586.382496,75.2385654 587.1505,74.1345599 L589.9945,76.0785599 Z M619.465,67.2585599 C619.465,69.2265697 619.123003,71.0325517 618.439,72.6765599 C617.754997,74.3205681 616.813006,75.736554 615.613,76.9245599 C614.412994,78.1125658 612.985008,79.0365566 611.329,79.6965599 C609.672992,80.3565632 607.87301,80.6865599 605.929,80.6865599 C603.98499,80.6865599 602.191008,80.3565632 600.547,79.6965599 C598.902992,79.0365566 597.481006,78.1125658 596.281,76.9245599 C595.080994,75.736554 594.145003,74.3205681 593.473,72.6765599 C592.800997,71.0325517 592.465,69.2265697 592.465,67.2585599 C592.465,65.2665499 592.800997,63.4485681 593.473,61.8045599 C594.145003,60.1605517 595.080994,58.7565657 596.281,57.5925599 C597.481006,56.4285541 598.902992,55.5225631 600.547,54.8745599 C602.191008,54.2265567 603.98499,53.9025599 605.929,53.9025599 C607.87301,53.9025599 609.672992,54.2265567 611.329,54.8745599 C612.985008,55.5225631 614.412994,56.4285541 615.613,57.5925599 C616.813006,58.7565657 617.754997,60.1605517 618.439,61.8045599 C619.123003,63.4485681 619.465,65.2665499 619.465,67.2585599 Z M615.613,67.2585599 C615.613,65.8665529 615.385002,64.5525661 614.929,63.3165599 C614.472998,62.0805537 613.825004,60.9945646 612.985,60.0585599 C612.144996,59.1225552 611.131006,58.3845626 609.943,57.8445599 C608.754994,57.3045572 607.417007,57.0345599 605.929,57.0345599 C604.464993,57.0345599 603.139006,57.3045572 601.951,57.8445599 C600.762994,58.3845626 599.755004,59.1225552 598.927,60.0585599 C598.098996,60.9945646 597.457002,62.0805537 597.001,63.3165599 C596.544998,64.5525661 596.317,65.8665529 596.317,67.2585599 C596.317,68.674567 596.544998,70.0065537 597.001,71.2545599 C597.457002,72.5025661 598.104996,73.5885553 598.945,74.5125599 C599.785004,75.4365645 600.792994,76.1625573 601.969,76.6905599 C603.145006,77.2185625 604.464993,77.4825599 605.929,77.4825599 C607.393007,77.4825599 608.724994,77.2185625 609.925,76.6905599 C611.125006,76.1625573 612.144996,75.4365645 612.985,74.5125599 C613.825004,73.5885553 614.472998,72.5025661 614.929,71.2545599 C615.385002,70.0065537 615.613,68.674567 615.613,67.2585599 Z M624.8875,54.5505599 L632.6635,54.5505599 C634.031507,54.5505599 635.279494,54.6885585 636.4075,54.9645599 C637.535506,55.2405613 638.495496,55.666557 639.2875,56.2425599 C640.079504,56.8185628 640.691498,57.5505555 641.1235,58.4385599 C641.555502,59.3265643 641.7715,60.3945537 641.7715,61.6425599 C641.7715,62.9145663 641.537502,64.0065553 641.0695,64.9185599 C640.601498,65.8305645 639.953504,66.574557 639.1255,67.1505599 C638.297496,67.7265628 637.313506,68.1525585 636.1735,68.4285599 C635.033494,68.7045613 633.803507,68.8425599 632.4835,68.8425599 L628.4515,68.8425599 L628.4515,80.0385599 L624.8875,80.0385599 L624.8875,54.5505599 Z M628.4515,65.8185599 L632.2315,65.8185599 C633.095504,65.8185599 633.893496,65.7405607 634.6255,65.5845599 C635.357504,65.4285591 635.987497,65.1885615 636.5155,64.8645599 C637.043503,64.5405583 637.451499,64.1145625 637.7395,63.5865599 C638.027501,63.0585573 638.1715,62.4105637 638.1715,61.6425599 C638.1715,60.8745561 638.021501,60.2325625 637.7215,59.7165599 C637.421498,59.2005573 637.013503,58.7805615 636.4975,58.4565599 C635.981497,58.1325583 635.363504,57.9045606 634.6435,57.7725599 C633.923496,57.6405592 633.143504,57.5745599 632.3035,57.5745599 L628.4515,57.5745599 L628.4515,65.8185599 Z M650.434,76.8705599 L663.754,76.8705599 L663.754,80.0385599 L646.87,80.0385599 L646.87,54.5505599 L663.214,54.5505599 L663.214,57.6825599 L650.434,57.6825599 L650.434,65.3145599 L662.458,65.3145599 L662.458,68.3745599 L650.434,68.3745599 L650.434,76.8705599 Z M691.0285,76.5105599 C689.900494,77.8065664 688.508508,78.8325561 686.8525,79.5885599 C685.196492,80.3445637 683.288511,80.7225599 681.1285,80.7225599 C679.16049,80.7225599 677.342508,80.3985631 675.6745,79.7505599 C674.006492,79.1025567 672.560506,78.1845658 671.3365,76.9965599 C670.112494,75.808554 669.152503,74.3865682 668.4565,72.7305599 C667.760497,71.0745516 667.4125,69.2505699 667.4125,67.2585599 C667.4125,65.2185497 667.766496,63.3705682 668.4745,61.7145599 C669.182504,60.0585516 670.160494,58.6485657 671.4085,57.4845599 C672.656506,56.3205541 674.120492,55.426563 675.8005,54.8025599 C677.480508,54.1785568 679.29249,53.8665599 681.2365,53.8665599 C683.036509,53.8665599 684.806491,54.1845567 686.5465,54.8205599 C688.286509,55.4565631 689.696495,56.3865538 690.7765,57.6105599 L686.6005,61.7865599 C686.024497,60.9945559 685.268505,60.4065618 684.3325,60.0225599 C683.396495,59.638558 682.436505,59.4465599 681.4525,59.4465599 C680.372495,59.4465599 679.382505,59.6445579 678.4825,60.0405599 C677.582496,60.4365619 676.808503,60.9825564 676.1605,61.6785599 C675.512497,62.3745634 675.008502,63.1965552 674.6485,64.1445599 C674.288498,65.0925646 674.1085,66.1305543 674.1085,67.2585599 C674.1085,68.4105657 674.288498,69.4665551 674.6485,70.4265599 C675.008502,71.3865647 675.506497,72.2085565 676.1425,72.8925599 C676.778503,73.5765633 677.540496,74.110558 678.4285,74.4945599 C679.316504,74.8785618 680.288495,75.0705599 681.3445,75.0705599 C682.568506,75.0705599 683.636495,74.8305623 684.5485,74.3505599 C685.460505,73.8705575 686.192497,73.2465637 686.7445,72.4785599 L691.0285,76.5105599 Z M711.067,80.0385599 L709.087,75.0345599 L699.223,75.0345599 L697.351,80.0385599 L690.655,80.0385599 L701.347,54.5505599 L707.323,54.5505599 L717.907,80.0385599 L711.067,80.0385599 Z M704.227,61.3545599 L700.987,70.1025599 L707.395,70.1025599 L704.227,61.3545599 Z M736.7935,80.0385599 L726.5335,63.3705599 L726.4255,63.3705599 L726.5695,80.0385599 L720.5935,80.0385599 L720.5935,54.5505599 L727.6135,54.5505599 L737.8375,71.1825599 L737.9455,71.1825599 L737.8015,54.5505599 L743.7775,54.5505599 L743.7775,80.0385599 L736.7935,80.0385599 Z M762.232,80.0385599 L756.076,80.0385599 L746.428,54.5505599 L753.34,54.5505599 L759.244,72.6225599 L759.388,72.6225599 L765.256,54.5505599 L772.06,54.5505599 L762.232,80.0385599 Z M790.9105,80.0385599 L788.9305,75.0345599 L779.0665,75.0345599 L777.1945,80.0385599 L770.4985,80.0385599 L781.1905,54.5505599 L787.1665,54.5505599 L797.7505,80.0385599 L790.9105,80.0385599 Z M784.0705,61.3545599 L780.8305,70.1025599 L787.2385,70.1025599 L784.0705,61.3545599 Z M813.901,61.1745599 C813.372997,60.5025565 812.683004,59.9685619 811.831,59.5725599 C810.978996,59.1765579 810.157004,58.9785599 809.365,58.9785599 C808.956998,58.9785599 808.543002,59.0145595 808.123,59.0865599 C807.702998,59.1585603 807.325002,59.2965589 806.989,59.5005599 C806.652998,59.7045609 806.371001,59.9685583 806.143,60.2925599 C805.914999,60.6165615 805.801,61.0305574 805.801,61.5345599 C805.801,61.9665621 805.890999,62.3265585 806.071,62.6145599 C806.251001,62.9025613 806.514998,63.1545588 806.863,63.3705599 C807.211002,63.586561 807.624998,63.784559 808.105,63.9645599 C808.585002,64.1445608 809.124997,64.3305589 809.725,64.5225599 C810.589004,64.8105613 811.488995,65.1285582 812.425,65.4765599 C813.361005,65.8245616 814.212996,66.286557 814.981,66.8625599 C815.749004,67.4385628 816.384997,68.1525556 816.889,69.0045599 C817.393003,69.8565642 817.645,70.9185535 817.645,72.1905599 C817.645,73.6545672 817.375003,74.9205546 816.835,75.9885599 C816.294997,77.0565652 815.569005,77.9385564 814.657,78.6345599 C813.744995,79.3305634 812.701006,79.8465582 811.525,80.1825599 C810.348994,80.5185616 809.137006,80.6865599 807.889,80.6865599 C806.064991,80.6865599 804.301009,80.3685631 802.597,79.7325599 C800.892991,79.0965567 799.477006,78.1905658 798.349,77.0145599 L802.381,72.9105599 C803.005003,73.6785637 803.826995,74.3205573 804.847,74.8365599 C805.867005,75.3525625 806.880995,75.6105599 807.889,75.6105599 C808.345002,75.6105599 808.788998,75.5625604 809.221,75.4665599 C809.653002,75.3705594 810.030998,75.214561 810.355,74.9985599 C810.679002,74.7825588 810.936999,74.4945617 811.129,74.1345599 C811.321001,73.7745581 811.417,73.3425624 811.417,72.8385599 C811.417,72.3585575 811.297001,71.9505616 811.057,71.6145599 C810.816999,71.2785582 810.475002,70.9725613 810.031,70.6965599 C809.586998,70.4205585 809.035003,70.168561 808.375,69.9405599 C807.714997,69.7125588 806.965004,69.4665612 806.125,69.2025599 C805.308996,68.9385586 804.511004,68.6265617 803.731,68.2665599 C802.950996,67.9065581 802.255003,67.4445627 801.643,66.8805599 C801.030997,66.3165571 800.539002,65.6325639 800.167,64.8285599 C799.794998,64.0245559 799.609,63.0465657 799.609,61.8945599 C799.609,60.4785528 799.896997,59.2665649 800.473,58.2585599 C801.049003,57.2505549 801.804995,56.4225631 802.741,55.7745599 C803.677005,55.1265567 804.732994,54.6525614 805.909,54.3525599 C807.085006,54.0525584 808.272994,53.9025599 809.473,53.9025599 C810.913007,53.9025599 812.382993,54.1665573 813.883,54.6945599 C815.383008,55.2225625 816.696994,56.0025547 817.825,57.0345599 L813.901,61.1745599 Z" id="SCOPECANVAS"></path>
        </g>
    </g>
</svg>